<?xml version="1.0" encoding="UTF-8"?>
<svg version="1.1" xmlns="http://www.w3.org/2000/svg" width="2048" height="2048">
<path d="M0 0 C0.66 0 1.32 0 2 0 C2.0501123 0.56170898 2.10022461 1.12341797 2.15185547 1.70214844 C3.14716348 12.82883433 4.18349393 23.94908163 5.31762695 35.0625 C5.88960812 40.72870621 6.36932183 46.39569394 6.75390625 52.078125 C6.99727857 54.96768841 7.36014032 57.83098463 7.73022461 60.70654297 C8.2672973 65.27238993 8.61800547 69.85654999 9 74.4375 C9.66697123 82.46897995 9.66697123 82.46897995 10.5 90.484375 C11.12258026 95.91675259 11.55711988 101.36299852 12 106.8125 C12.12375 108.31780273 12.12375 108.31780273 12.25 109.85351562 C12.37375 111.35881836 12.37375 111.35881836 12.5 112.89453125 C12.58378906 113.91208496 12.66757813 114.92963867 12.75390625 115.97802734 C12.91126423 117.91034582 13.06524109 119.84294454 13.21484375 121.77587891 C14.01943251 131.94439866 15.15871171 142.07817973 16.27050781 152.21679688 C17.33942668 161.98865885 18.23366964 171.73177593 18.79394531 181.54638672 C19.04620428 185.77441441 19.4263104 189.97653609 19.875 194.1875 C19.95741943 194.98792725 20.03983887 195.78835449 20.12475586 196.61303711 C20.41336563 199.4090259 20.70675561 202.2044936 21 205 C21.38834871 208.73534875 21.77568743 212.47080081 22.16259766 216.20629883 C22.4229317 218.7166628 22.68427272 221.22692262 22.94677734 223.73706055 C23.18906906 226.06283698 23.42843246 228.38892075 23.66455078 230.71533203 C23.8833564 232.8578435 24.11050562 234.99952414 24.34716797 237.14013672 C24.44787598 238.10322754 24.54858398 239.06631836 24.65234375 240.05859375 C24.74378662 240.89575928 24.83522949 241.7329248 24.92944336 242.59545898 C25.00619332 245.21106579 24.60448441 247.46127864 24 250 C24.66 250.33 25.32 250.66 26 251 C25.979375 252.010625 25.95875 253.02125 25.9375 254.0625 C25.99698694 257.81017715 26.46140434 261.29715484 27 265 C27 267 27 269 27 271 C27.15726563 271.56203125 27.31453125 272.1240625 27.4765625 272.703125 C28.21976096 275.96432422 28.2468716 279.23265145 28.375 282.5625 C28.80371956 291.85012456 29.83775696 301.0434881 30.90917969 310.27587891 C31.72444995 317.34860006 32.40764999 324.38547477 32.7890625 331.49609375 C32.92580164 333.94514171 32.92580164 333.94514171 33.5234375 336.046875 C34.09042089 338.37057744 34.06018819 340.42378108 34 342.8125 C33.95729491 346.98539713 34.3247206 350.87329254 35 355 C35.22106187 356.56075004 35.42885359 358.1234234 35.625 359.6875 C35.72039063 360.41324219 35.81578125 361.13898438 35.9140625 361.88671875 C36.00511747 364.12584316 35.64598473 365.86439378 35 368 C35.66 368 36.32 368 37 368 C36.95552734 369.7325 36.95552734 369.7325 36.91015625 371.5 C36.91156433 378.6980845 37.73415364 385.84428614 38.4375 393 C38.57394156 394.42444341 38.7100117 395.84892244 38.84570312 397.2734375 C39.50825212 404.18884911 40.21654536 411.09712936 41 418 C42.0825642 428.61514343 43.11444217 439.32418057 43 450 C43.66 450 44.32 450 45 450 C44.979375 451.175625 44.95875 452.35125 44.9375 453.5625 C44.9375 458.03125985 45.15593186 462.4788925 45.4375 466.9375 C45.51871094 468.22527344 45.59992187 469.51304687 45.68359375 470.83984375 C45.8004064 473.89738027 45.8004064 473.89738027 47 476 C47.07015144 478.4377625 46.99732254 480.85910636 46.9375 483.296875 C47.00669198 486.28942808 47.49861835 489.04741915 48 492 C48.37963857 495.41236669 48.68872148 498.83079998 49 502.25 C49.16642752 504.04689717 49.3330935 505.84377226 49.5 507.640625 C49.62375 508.98350586 49.62375 508.98350586 49.75 510.35351562 C49.98649635 512.85705124 50.24117403 515.35806465 50.5 517.859375 C51.22474187 525.03601817 51.72504352 532.23223697 52.25 539.42578125 C52.37375 541.04033203 52.37375 541.04033203 52.5 542.6875 C52.5721875 543.66074219 52.644375 544.63398437 52.71875 545.63671875 C52.86664939 548.01528341 52.86664939 548.01528341 54 550 C54.02068918 551.70833509 53.9910086 553.41737778 53.9375 555.125 C53.87376935 560.98822014 54.45948857 566.60192868 55.28881836 572.39111328 C55.83966988 576.3055497 56 580.05411258 56 584 C56.32387422 585.6685306 56.65892688 587.3349 57 589 C57.39375315 592.30676925 57.69540704 595.6214763 58 598.9375 C58.08902588 599.8847998 58.17805176 600.83209961 58.26977539 601.80810547 C58.72659493 606.7444461 59.13019539 611.67676856 59.4375 616.625 C59.88143048 623.33944855 60.66536863 630.00370839 61.4375 636.6875 C62.65005084 647.2287748 63.56147256 657.76227319 64.30053711 668.34643555 C65.10643447 679.80929815 66.26994041 691.22083331 67.5 702.64453125 C68.72830655 714.08793403 69.77409572 725.5398148 70.74560547 737.0078125 C71.17761822 742.08914485 71.62043136 747.16953441 72.0625 752.25 C72.14177734 753.16555664 72.22105469 754.08111328 72.30273438 755.02441406 C72.4557444 756.78788679 72.61016696 758.55123763 72.76611328 760.31445312 C72.93242235 762.22405624 73.09149307 764.13429577 73.24560547 766.04492188 C73.36959717 767.53088867 73.36959717 767.53088867 73.49609375 769.046875 C73.56884521 769.94760742 73.64159668 770.84833984 73.71655273 771.77636719 C73.88004318 774.03552482 73.88004318 774.03552482 75 776 C75.13415472 778.6723621 75.04318541 781.32250488 75 784 C75.55429688 783.566875 76.10859375 783.13375 76.6796875 782.6875 C77.40414062 782.130625 78.12859375 781.57375 78.875 781 C79.59429688 780.443125 80.31359375 779.88625 81.0546875 779.3125 C83 778 83 778 85 778 C85 777.34 85 776.68 85 776 C85.65556885 775.58274658 86.3111377 775.16549316 86.98657227 774.7355957 C89.27317123 773.14930572 89.27317123 773.14930572 89.37475586 770.36791992 C89.29559937 768.81488159 89.29559937 768.81488159 89.21484375 767.23046875 C89.17939453 766.09416016 89.14394531 764.95785156 89.10742188 763.78710938 C88.99468371 761.39887435 88.87753885 759.01084304 88.75585938 756.62304688 C88.46203817 746.81607122 88.46203817 746.81607122 91.15625 743.4140625 C93.87782936 741.10371079 96.5235306 739.05991091 99.5625 737.1875 C100.49191406 736.60355469 101.42132812 736.01960937 102.37890625 735.41796875 C104.65563733 734.18629456 106.47342446 733.45775604 109 733 C109 732.34 109 731.68 109 731 C109.51046875 730.74347656 110.0209375 730.48695313 110.546875 730.22265625 C117.58096896 726.5185323 123.72351661 721.85312787 130 717 C143.00422316 706.95932429 143.00422316 706.95932429 149 706 C149 705.01 149 704.02 149 703 C149.99 703 150.98 703 152 703 C152 702.34 152 701.68 152 701 C153.828125 699.59765625 153.828125 699.59765625 156.25 698.0625 C158.63123581 696.5411549 160.94157556 695.04549961 163.171875 693.30859375 C165 692 165 692 167 692 C167 691.34 167 690.68 167 690 C169.01171875 688.30859375 169.01171875 688.30859375 171.6875 686.4375 C172.55761719 685.81746094 173.42773438 685.19742188 174.32421875 684.55859375 C176.971551 683.01657102 178.98555914 682.39649402 182 682 C182 681.34 182 680.68 182 680 C182.66 680 183.32 680 184 680 C184.33 679.01 184.66 678.02 185 677 C185.78375 676.9175 186.5675 676.835 187.375 676.75 C188.24125 676.5025 189.1075 676.255 190 676 C190.2990625 675.38382813 190.598125 674.76765625 190.90625 674.1328125 C192.25627717 671.50025951 193.62254403 670.6683265 196.125 669.125 C200.04871072 666.6401945 203.72414737 663.97491419 207.37109375 661.1015625 C209 660 209 660 211 660 C211 659.34 211 658.68 211 658 C212.60875 657.13375 212.60875 657.13375 214.25 656.25 C216.60767032 654.91760916 218.15222793 653.8431591 220.0625 651.875 C222.47926931 649.53619099 224.84774855 649.05075048 228 648 C228.33 647.01 228.66 646.02 229 645 C230.33160378 644.04397677 231.67538663 643.1016774 233.06640625 642.234375 C235.40237128 640.74313268 237.62719888 639.12091051 239.875 637.5 C242.99689656 635.29297947 246.04403462 633.38372909 249.5 631.75 C253.17571587 630.27391004 253.17571587 630.27391004 255 627 C255.99 627 256.98 627 258 627 C258.33 626.01 258.66 625.02 259 624 C260.32 624 261.64 624 263 624 C263.33 622.68 263.66 621.36 264 620 C264.99 620 265.98 620 267 620 C267.226875 619.38125 267.45375 618.7625 267.6875 618.125 C269.39400526 615.36208673 271.02739286 615.16004181 274 614 C275.01241685 612.67607028 276.01439389 611.34400833 277 610 C277.99 610 278.98 610 280 610 C280 609.34 280 608.68 280 608 C281.32 608 282.64 608 284 608 C284.66 606.68 285.32 605.36 286 604 C287.32 604 288.64 604 290 604 C290 603.01 290 602.02 290 601 C290.78375 600.9175 291.5675 600.835 292.375 600.75 C293.24125 600.5025 294.1075 600.255 295 600 C295.4640625 599.0409375 295.4640625 599.0409375 295.9375 598.0625 C297 596 297 596 300.0625 594.9375 C301.031875 594.628125 302.00125 594.31875 303 594 C303.33 593.01 303.66 592.02 304 591 C305.99107248 589.98234073 307.99218823 588.98422146 310 588 C310.61875 587.38125 311.2375 586.7625 311.875 586.125 C314.36642666 583.63357334 317.04387551 582.04214325 320.04296875 580.22265625 C323.38860499 578.13246834 326.27814257 575.72185743 329.0625 572.9375 C330.951283 571.048717 332.7552181 569.44824639 335 568 C335.99 568 336.98 568 338 568 C338 567.34 338 566.68 338 566 C339.65 565.67 341.3 565.34 343 565 C343.33 564.01 343.66 563.02 344 562 C345.98320018 560.96708324 347.98347806 559.9662501 350 559 C350.33 558.34 350.66 557.68 351 557 C351.99 556.67 352.98 556.34 354 556 C355.02019573 555.0206121 356.02149805 554.02104551 357 553 C359.77100394 551.61449803 361.9334706 551.8122533 365 552 C365.99 552.66 366.98 553.32 368 554 C367.67 554.99 367.34 555.98 367 557 C366.34 557 365.68 557 365 557 C364.896875 557.5775 364.79375 558.155 364.6875 558.75 C363.89103535 561.35661158 362.80934723 562.9735311 361 565 C360.34 565 359.68 565 359 565 C358.773125 565.721875 358.54625 566.44375 358.3125 567.1875 C356.75173074 570.53200556 354.6266129 572.44073615 352 575 C351.67 575.99 351.34 576.98 351 578 C350.34 578 349.68 578 349 578 C348.731875 578.7425 348.46375 579.485 348.1875 580.25 C347.0392528 582.90909879 345.96498625 584.87781485 344 587 C343.01 587 342.02 587 341 587 C340.773125 587.86625 340.54625 588.7325 340.3125 589.625 C338.639267 593.92759914 336.27675521 597.86162239 332 600 C331.505 600.845625 331.01 601.69125 330.5 602.5625 C330.005 603.366875 329.51 604.17125 329 605 C328.34 605 327.68 605 327 605 C326.88527344 605.58265625 326.77054688 606.1653125 326.65234375 606.765625 C325.95175938 609.16523135 325.01807405 610.72860933 323.5625 612.75 C322.91474609 613.67039062 322.91474609 613.67039062 322.25390625 614.609375 C321.84011719 615.06828125 321.42632813 615.5271875 321 616 C320.34 616 319.68 616 319 616 C318.773125 616.70125 318.54625 617.4025 318.3125 618.125 C316.66158712 621.74128535 314.7091165 624.08769976 312 627 C311.34 627 310.68 627 310 627 C309.7525 627.70511719 309.505 628.41023437 309.25 629.13671875 C307.83896341 632.36887443 306.0749274 634.96328902 304 637.8125 C303.29875 638.78832031 302.5975 639.76414062 301.875 640.76953125 C301.25625 641.50558594 300.6375 642.24164062 300 643 C299.34 643 298.68 643 298 643 C297.773125 643.515625 297.54625 644.03125 297.3125 644.5625 C294.29747831 650.161826 290.4840147 654.5159853 286 659 C284.65783025 660.99408077 283.3227887 662.99301025 282 665 C281.34 665.33 280.68 665.66 280 666 C278.86649466 668.01669827 278.86649466 668.01669827 278 670 C277.34 670 276.68 670 276 670 C276 670.99 276 671.98 276 673 C274.8125 674.3125 274.8125 674.3125 273 676 C272.13849702 677.05656025 271.28484144 678.11954896 270.4375 679.1875 C269.633125 680.115625 268.82875 681.04375 268 682 C267.34 682 266.68 682 266 682 C265.67 683.65 265.34 685.3 265 687 C264.01 687.33 263.02 687.66 262 688 C262 688.66 262 689.32 262 690 C261.34 690 260.68 690 260 690 C259.34 691.65 258.68 693.3 258 695 C257.34 695 256.68 695 256 695 C255.9175 695.556875 255.835 696.11375 255.75 696.6875 C254.76104459 699.73677919 253.15242534 701.65189963 251 704 C250.34 704 249.68 704 249 704 C248.7525 704.78375 248.505 705.5675 248.25 706.375 C246.77860006 709.46493987 245.92681545 709.53659227 243 711 C242.31653318 712.65984798 241.65411685 714.32836805 241 716 C239.16374953 718.79587289 237.25732784 721.52798065 235 724 C234.34 724 233.68 724 233 724 C232.87625 724.639375 232.7525 725.27875 232.625 725.9375 C232.41875 726.618125 232.2125 727.29875 232 728 C231.34 728.33 230.68 728.66 230 729 C229.67 729.99 229.34 730.98 229 732 C228.34 732.33 227.68 732.66 227 733 C226.67 733.99 226.34 734.98 226 736 C225 737 224 738 223 739 C222.525625 739.804375 222.05125 740.60875 221.5625 741.4375 C219.95782194 744.06917202 218.32023371 745.97915129 216 748 C215.34 748 214.68 748 214 748 C213.88978516 748.79664063 213.88978516 748.79664063 213.77734375 749.609375 C212.68956324 752.95471004 210.67283612 755.48905947 208.5625 758.25 C207.95051758 759.08144531 207.95051758 759.08144531 207.32617188 759.9296875 C206.27046691 761.32810909 205.14012413 762.66950652 204 764 C203.34 764 202.68 764 202 764 C201.34 765.65 200.68 767.3 200 769 C199.34 769 198.68 769 198 769 C197.67 770.32 197.34 771.64 197 773 C196.34 773 195.68 773 195 773 C194.67 773.99 194.34 774.98 194 776 C193.34 776 192.68 776 192 776 C191.7525 776.71929688 191.505 777.43859375 191.25 778.1796875 C189.86879113 781.29604001 188.17636006 783.50856713 186 786.125 C183.86263907 788.71026378 181.86241106 791.20638341 180 794 C179.34 794 178.68 794 178 794 C178 794.99 178 795.98 178 797 C177.34 797 176.68 797 176 797 C175.67 798.32 175.34 799.64 175 801 C174.34 801 173.68 801 173 801 C173 801.66 173 802.32 173 803 C172.34 803 171.68 803 171 803 C170.7525 803.71542969 170.505 804.43085937 170.25 805.16796875 C168.86136405 808.31409706 167.15536054 810.63810963 165 813.3125 C164.29875 814.19550781 163.5975 815.07851563 162.875 815.98828125 C162.25625 816.65214844 161.6375 817.31601562 161 818 C160.34 818 159.68 818 159 818 C158.76410156 818.69738281 158.52820312 819.39476562 158.28515625 820.11328125 C156.75196944 823.5571264 154.74311884 826.20832959 152.4375 829.1875 C149.45571326 832.92771244 149.45571326 832.92771244 147 837 C154.57956634 838.47858965 162.03962651 839.3106687 169.7421875 839.65795898 C174.80556005 839.90278002 174.80556005 839.90278002 177 841 C179.62868441 841.20798382 182.24235262 841.37419207 184.875 841.5 C193.0507404 841.89489265 193.0507404 841.89489265 197 843 C198.64229622 843.21630243 200.28877054 843.40245384 201.9375 843.5625 C202.77152344 843.64628906 203.60554688 843.73007812 204.46484375 843.81640625 C206.99267789 844.03609326 206.99267789 844.03609326 209.50390625 843.96484375 C212 844 212 844 214.12524414 844.44580078 C217.89176418 845.17191547 221.67827152 845.53054196 225.4921875 845.90234375 C226.31518341 845.98496964 227.13817932 846.06759552 227.9861145 846.15272522 C231.48387442 846.50380648 234.98218628 846.84923927 238.48046875 847.19506836 C248.25934112 848.16500379 258.00605936 849.19645462 267.73657227 850.58007812 C272.18006464 851.15184493 276.62767585 851.47201559 281.09765625 851.75390625 C284.10646698 852.00902748 287.02559811 852.48565973 290 853 C292.24943957 853.26594359 294.50007199 853.49376833 296.75390625 853.71875 C299 854 299 854 301.390625 854.50390625 C304.33505023 855.06369967 307.1953411 855.2623318 310.1875 855.4375 C321.42126199 856.19872001 332.57711848 857.57595633 343.75 858.94921875 C346.60413933 859.29970231 349.45830912 859.64993656 352.3125 860 C353.02901733 860.08799866 353.74553467 860.17599731 354.48376465 860.2666626 C364.9040471 861.54325743 375.32709216 862.68194021 385.78515625 863.60546875 C389.19886095 863.91147428 392.59345027 864.30473517 395.99243164 864.7434082 C399.55326373 865.19852611 403.12015002 865.59970202 406.6875 866 C407.85780762 866.13136353 407.85780762 866.13136353 409.05175781 866.26538086 C414.76137979 866.89334564 420.47049992 867.38234722 426.203125 867.75390625 C429 868 429 868 431.70361328 868.45898438 C435.30807904 869.05056311 438.91003429 869.48711853 442.5390625 869.90234375 C443.25392822 869.98438049 443.96879395 870.06641724 444.70532227 870.15093994 C447.01168198 870.41491109 449.31831726 870.6763678 451.625 870.9375 C452.40945496 871.02681793 453.19390991 871.11613586 454.00213623 871.2081604 C464.65272942 872.42039314 475.30578768 873.58348254 485.9765625 874.60546875 C487.31777685 874.73627854 488.65892074 874.86781247 490 875 C491.20994629 875.11722412 491.20994629 875.11722412 492.44433594 875.23681641 C493.25418945 875.3197998 494.06404297 875.4027832 494.8984375 875.48828125 C495.63497559 875.56216064 496.37151367 875.63604004 497.13037109 875.7121582 C499 876 499 876 501 877 C501.969375 877 502.93875 877 503.9375 877 C507 877 507 877 510 878 C512.2060961 878.1596906 514.41529022 878.27730757 516.625 878.375 C524.24529793 878.77520662 531.79947641 879.594926 539.375 880.5 C540.48697754 880.63067871 541.59895508 880.76135742 542.74462891 880.89599609 C543.78538574 881.02312988 544.82614258 881.15026367 545.8984375 881.28125 C546.83349121 881.39533203 547.76854492 881.50941406 548.73193359 881.62695312 C551 882 551 882 553 883 C554.918125 882.9690625 554.918125 882.9690625 556.875 882.9375 C560.58265242 882.89026876 563.97923732 883.26746794 567.625 883.9375 C573.43194201 884.98863001 579.16466356 885.37998064 585.05078125 885.71875 C591.73734543 886.19494448 598.35659797 887.1151348 605 888 C611.05359813 888.79522827 617.10576173 889.40205915 623.1875 889.9375 C625.1549726 890.11430889 627.12241996 890.29139887 629.08984375 890.46875 C630.07968262 890.55769531 631.06952148 890.64664063 632.08935547 890.73828125 C645.55177932 891.94879277 658.9807857 893.31772668 672.40600586 894.89208984 C679.03691595 895.6668826 685.66906824 896.40340566 692.3125 897.0625 C693.50057251 897.18044922 693.50057251 897.18044922 694.71264648 897.30078125 C698.99030319 897.71977425 703.26953751 898.11552227 707.55078125 898.49609375 C708.48172607 898.58044678 709.4126709 898.6647998 710.37182617 898.75170898 C712.13848412 898.91103249 713.90555404 899.06588753 715.6730957 899.21508789 C721.54741216 899.74625437 727.23897214 900.74049165 733 902 C733 903.32 733 904.64 733 906 C722.43652861 908.36143176 712.01702188 909.52100059 701.22949219 910.2980957 C695.22918781 910.73286738 689.27452515 911.25708271 683.3125 912.0625 C677.41903336 912.85033129 671.56065903 913.34215841 665.62890625 913.7265625 C661.76105964 914.01800412 657.91471249 914.42870709 654.0625 914.875 C643.99322179 916.04145234 633.90384926 916.99248434 623.81274414 917.94677734 C617.5274754 918.54507328 611.25833634 919.16509515 605 920 C597.07755992 921.05522615 589.23286774 922.04055437 581.25 922.5 C575.65810581 922.82340082 570.30707507 923.57975988 564.8046875 924.59375 C561.13017214 925.12599178 557.56688652 925.10851418 553.86328125 924.97265625 C551.98393656 924.78384513 551.98393656 924.78384513 551 926 C548.42305415 926.37457599 545.86112147 926.69244578 543.2734375 926.97265625 C542.10187607 927.1037101 542.10187607 927.1037101 540.90664673 927.2374115 C539.24740864 927.42188957 537.58792397 927.60416085 535.92822266 927.78442383 C533.40585404 928.05913963 530.88456798 928.342499 528.36328125 928.62695312 C526.7500579 928.80521223 525.13677821 928.98296239 523.5234375 929.16015625 C522.7752475 929.24451431 522.0270575 929.32887238 521.25619507 929.41578674 C517.8498534 929.78091767 514.58976884 929.9989321 511.15478516 929.98999023 C507.97177422 929.83539963 507.97177422 929.83539963 505 931 C503.33333333 931 501.66666667 931 500 931 C499.01 931.33 498.02 931.66 497 932 C495.34816505 932.237478 493.69070005 932.43670258 492.03125 932.61328125 C491.00257812 932.72486572 489.97390625 932.8364502 488.9140625 932.95141602 C487.78742188 933.07057373 486.66078125 933.18973145 485.5 933.3125 C483.05201413 933.57748644 480.60410104 933.84314586 478.15625 934.109375 C477.507771 934.17959366 476.85929199 934.24981232 476.19116211 934.32215881 C468.88226434 935.11585597 461.57912282 935.95894148 454.27560425 936.80044556 C442.91045908 938.10923499 431.5439781 939.39177356 420.1640625 940.56640625 C415.5445082 941.04379695 410.92832353 941.55041951 406.3125 942.0625 C405.59312256 942.14193848 404.87374512 942.22137695 404.13256836 942.30322266 C400.88932782 942.66455472 397.65350799 943.04572032 394.41796875 943.47265625 C388.65969812 944.20043865 382.87426111 944.66621562 377.09432983 945.18579102 C365.65054542 946.21966199 354.24461756 947.39118004 342.84814453 948.86791992 C335.03152302 949.8801971 327.20744107 950.80585839 319.375 951.6875 C318.22990967 951.81898438 317.08481934 951.95046875 315.9050293 952.0859375 C314.830354 952.20582031 313.75567871 952.32570313 312.6484375 952.44921875 C311.70145996 952.55580811 310.75448242 952.66239746 309.77880859 952.7722168 C306.8413043 953.01300853 303.9459878 953.00748237 301 953 C299.33157466 953.32441604 297.66519519 953.65939189 296 954 C293.53467103 954.26932165 291.06791604 954.49951934 288.59765625 954.71875 C286.81434563 954.91183025 285.03697843 955.1667033 283.26953125 955.47265625 C279.06855362 956.15023329 274.86016514 956.53849114 270.625 956.9375 C263.26972071 957.65140454 255.94311341 958.48631789 248.61328125 959.4296875 C242.45808285 960.20561212 236.29096537 960.87859233 230.125 961.5625 C228.41268188 961.75283813 228.41268188 961.75283813 226.66577148 961.94702148 C216.71173372 963.0460844 206.77836656 964.05174192 196.78515625 964.71875 C193.91823205 964.9054156 193.91823205 964.9054156 191 966 C187.8162202 966.25814431 184.63862297 966.44144225 181.44921875 966.60546875 C178.41878033 966.77880744 175.89654151 967.03448616 173 968 C170.47640912 968.1804611 167.96396209 968.32348261 165.4375 968.4375 C159.14537464 968.76705362 153.13289634 969.48151845 147 971 C150.44845062 976.28273286 153.99296873 981.41415262 157.8984375 986.37109375 C159 988 159 988 159 990 C159.57234375 990.2165625 160.1446875 990.433125 160.734375 990.65625 C163.74885559 992.44414884 165.22666458 994.65234274 167.25 997.5 C167.95640625 998.4796875 168.6628125 999.459375 169.390625 1000.46875 C171 1003 171 1003 171 1005 C171.66 1005 172.32 1005 173 1005 C173 1005.66 173 1006.32 173 1007 C173.99 1007.33 174.98 1007.66 176 1008 C176 1008.99 176 1009.98 176 1011 C176.66 1011 177.32 1011 178 1011 C178 1011.99 178 1012.98 178 1014 C178.99 1014.33 179.98 1014.66 181 1015 C181.94518825 1016.35026892 182.88011695 1017.70940697 183.75 1019.109375 C185.82571457 1022.24889329 188.24287628 1025.12355305 190.609375 1028.046875 C192 1030 192 1030 192 1032 C192.99 1032.33 193.98 1032.66 195 1033 C195 1033.66 195 1034.32 195 1035 C195.99 1035.33 196.98 1035.66 198 1036 C198 1036.99 198 1037.98 198 1039 C198.66 1039 199.32 1039 200 1039 C200.66 1040.65 201.32 1042.3 202 1044 C202.66 1044 203.32 1044 204 1044 C205.79938711 1046.06782027 207.47146088 1048.13325586 209.125 1050.3125 C209.59292969 1050.90740234 210.06085937 1051.50230469 210.54296875 1052.11523438 C214 1056.62550109 214 1056.62550109 214 1060 C214.99 1060.33 215.98 1060.66 217 1061 C218.5 1062.7421875 218.5 1062.7421875 220 1064.875 C221.45881044 1066.93405015 222.80887123 1068.81530345 224.625 1070.5703125 C226 1072 226 1072 227 1075 C227.66 1075.33 228.32 1075.66 229 1076 C229.33 1076.99 229.66 1077.98 230 1079 C230.99 1079.66 231.98 1080.32 233 1081 C233 1081.99 233 1082.98 233 1084 C233.59296875 1084.2371875 234.1859375 1084.474375 234.796875 1084.71875 C237.48100509 1086.27973346 238.57842113 1087.89976621 240.25 1090.5 C240.77078125 1091.2940625 241.2915625 1092.088125 241.828125 1092.90625 C243 1095 243 1095 243 1097 C243.61875 1097.226875 244.2375 1097.45375 244.875 1097.6875 C247.61410209 1099.37929835 248.05024472 1100.99244161 249 1104 C249.66 1104 250.32 1104 251 1104 C256 1109.35714286 256 1109.35714286 256 1113 C256.99 1113.33 257.98 1113.66 259 1114 C259.6875 1116.0625 259.6875 1116.0625 260 1118 C260.66 1118 261.32 1118 262 1118 C262 1118.66 262 1119.32 262 1120 C262.99 1120.33 263.98 1120.66 265 1121 C265.12375 1122.175625 265.12375 1122.175625 265.25 1123.375 C265.4975 1124.24125 265.745 1125.1075 266 1126 C267.32407669 1126.68486725 268.65909241 1127.34870203 270 1128 C271.3703055 1129.97485205 272.70672372 1131.97386717 274 1134 C274.66 1134.33 275.32 1134.66 276 1135 C276 1135.99 276 1136.98 276 1138 C276.99 1138.33 277.98 1138.66 279 1139 C279.33 1139.99 279.66 1140.98 280 1142 C281.1446875 1143.1446875 281.1446875 1143.1446875 282.3125 1144.3125 C285.02745893 1147.02745893 286.87672703 1149.81509055 289 1153 C290.6459651 1154.68711423 292.31237149 1156.3545622 294 1158 C298 1162.64864865 298 1162.64864865 298 1165 C298.66 1165 299.32 1165 300 1165 C301.3671875 1166.5390625 301.3671875 1166.5390625 302.875 1168.625 C303.4009375 1169.35203125 303.926875 1170.0790625 304.46875 1170.828125 C305.22671875 1171.90320312 305.22671875 1171.90320312 306 1173 C306.63421875 1173.88945312 306.63421875 1173.88945312 307.28125 1174.796875 C310 1178.71964286 310 1178.71964286 310 1181 C310.99 1181.33 311.98 1181.66 313 1182 C314.60546875 1183.77734375 314.60546875 1183.77734375 316.1875 1185.9375 C316.71730469 1186.64777344 317.24710938 1187.35804687 317.79296875 1188.08984375 C319 1190 319 1190 319 1192 C319.99 1192.33 320.98 1192.66 322 1193 C323.38671875 1194.5234375 323.38671875 1194.5234375 324.6875 1196.375 C325.12449219 1196.98085937 325.56148437 1197.58671875 326.01171875 1198.2109375 C327 1200 327 1200 327 1203 C327.9590625 1203.4021875 327.9590625 1203.4021875 328.9375 1203.8125 C331 1205 331 1205 332 1208 C334.16628019 1210.28029494 336.36160329 1212.45280282 338.75 1214.5 C340.44395709 1216.5327485 340.65107359 1218.41794457 341 1221 C341.5775 1221.04125 342.155 1221.0825 342.75 1221.125 C346.16879475 1222.45453129 347.22666645 1224.89666629 349 1228 C349 1228.66 349 1229.32 349 1230 C349.66 1230 350.32 1230 351 1230 C352.01351664 1231.65848177 353.01120795 1233.32665961 354 1235 C354.70125 1235.680625 355.4025 1236.36125 356.125 1237.0625 C358.15247266 1239.15755508 358.33955534 1240.26387214 359 1243 C359.99 1243.33 360.98 1243.66 362 1244 C364.32265612 1246.58072903 365 1247.45176068 365 1251 C365.99 1251.33 366.98 1251.66 368 1252 C367 1255 367 1255 365 1256 C361.09091428 1256.25494037 358.30875166 1256.20583444 355 1254 C354.67 1253.34 354.34 1252.68 354 1252 C353.01 1251.67 352.02 1251.34 351 1251 C350.67 1250.34 350.34 1249.68 350 1249 C348.34948712 1247.88365848 348.34948712 1247.88365848 346.4375 1246.875 C345.303125 1246.25625 344.16875 1245.6375 343 1245 C343 1244.34 343 1243.68 343 1243 C341.35 1242.67 339.7 1242.34 338 1242 C338 1241.34 338 1240.68 338 1240 C337.46375 1239.9175 336.9275 1239.835 336.375 1239.75 C330.21507892 1237.80476176 325.8827849 1233.17355571 321.64453125 1228.5078125 C319.07440946 1226.1513588 316.0379646 1224.7818554 312.9609375 1223.18359375 C311 1222 311 1222 310 1220 C308.34948712 1218.88365848 308.34948712 1218.88365848 306.4375 1217.875 C305.303125 1217.25625 304.16875 1216.6375 303 1216 C303 1215.34 303 1214.68 303 1214 C302.05125 1213.7525 301.1025 1213.505 300.125 1213.25 C296.51677029 1211.80670812 296.5786929 1211.26263199 295 1208 C292.44480079 1207.18828772 292.44480079 1207.18828772 290 1207 C290 1206.01 290 1205.02 290 1204 C288.35 1203.67 286.7 1203.34 285 1203 C284.67 1202.01 284.34 1201.02 284 1200 C282.68 1200 281.36 1200 280 1200 C280 1199.34 280 1198.68 280 1198 C279.4225 1197.9175 278.845 1197.835 278.25 1197.75 C275.36130421 1196.7871014 274.10880839 1195.17271168 272 1193 C271.0925 1192.46375 270.185 1191.9275 269.25 1191.375 C268.5075 1190.92125 267.765 1190.4675 267 1190 C267 1189.34 267 1188.68 267 1188 C265.68 1187.67 264.36 1187.34 263 1187 C263 1186.01 263 1185.02 263 1184 C261.35 1183.67 259.7 1183.34 258 1183 C258 1182.34 258 1181.68 258 1181 C257.401875 1180.896875 256.80375 1180.79375 256.1875 1180.6875 C254 1180 254 1180 252.625 1178.6015625 C250.81137988 1176.81410036 249.07219895 1175.85134495 246.8125 1174.6875 C242.87461993 1172.56513607 239.38696616 1170.16488945 235.86328125 1167.41796875 C234.12327144 1166.09381034 232.34889522 1164.91476069 230.5 1163.75 C229.675 1163.1725 228.85 1162.595 228 1162 C228 1161.34 228 1160.68 228 1160 C227.175 1159.814375 226.35 1159.62875 225.5 1159.4375 C221.44347093 1157.77142556 218.98254794 1155.54754548 215.83203125 1152.55859375 C213.9788847 1150.7852568 213.9788847 1150.7852568 211 1150 C211 1149.34 211 1148.68 211 1148 C210.12794922 1147.59394531 210.12794922 1147.59394531 209.23828125 1147.1796875 C207.00483153 1146.00254646 205.16951599 1144.68316328 203.1875 1143.125 C200.58327701 1141.11950492 198.03278067 1139.40477187 195.125 1137.875 C191.86535903 1135.91921542 191.54654569 1135.20355892 190 1132 C187.44480079 1131.18828772 187.44480079 1131.18828772 185 1131 C184.67 1130.01 184.34 1129.02 184 1128 C183.34 1128 182.68 1128 182 1128 C182 1127.34 182 1126.68 182 1126 C181.195625 1125.79375 180.39125 1125.5875 179.5625 1125.375 C174.94530207 1123.59292361 170.83757417 1121.13828288 167 1118 C167 1117.34 167 1116.68 167 1116 C165.9171875 1115.62875 165.9171875 1115.62875 164.8125 1115.25 C161.73105265 1113.88046785 159.5939755 1112.14002978 157 1110 C156.071875 1109.46375 155.14375 1108.9275 154.1875 1108.375 C153.465625 1107.92125 152.74375 1107.4675 152 1107 C152 1106.34 152 1105.68 152 1105 C151.01 1105 150.02 1105 149 1105 C149 1104.01 149 1103.02 149 1102 C148.41605469 1101.88269531 147.83210938 1101.76539063 147.23046875 1101.64453125 C144.85627212 1100.95846742 143.34455283 1100.08479394 141.3125 1098.6875 C140.53777344 1098.15640625 139.76304687 1097.6253125 138.96484375 1097.078125 C133.66461685 1093.36307795 128.36748557 1089.64392217 123.0859375 1085.90234375 C122.06064941 1085.17700439 122.06064941 1085.17700439 121.01464844 1084.43701172 C119.67830426 1083.48382196 118.34810492 1082.52195435 117.02441406 1081.55126953 C114.36266841 1079.60561031 112.14954039 1078.0498468 109 1077 C109 1076.34 109 1075.68 109 1075 C108.45214844 1074.90074219 107.90429688 1074.80148437 107.33984375 1074.69921875 C104.40552802 1073.82235311 102.15505776 1072.44138858 99.5625 1070.8125 C98.63566406 1070.24144531 97.70882812 1069.67039062 96.75390625 1069.08203125 C90.53856936 1064.38306024 90.53856936 1064.38306024 89 1061 C88.49758131 1056.58345035 88.71164957 1052.24451118 88.9375 1047.8125 C89.04828515 1045.4656376 89.14158321 1043.11786457 89.21484375 1040.76953125 C89.26761475 1039.73417236 89.32038574 1038.69881348 89.37475586 1037.63208008 C89.27317123 1034.85069428 89.27317123 1034.85069428 86.98657227 1033.2644043 C86.33100342 1032.84715088 85.67543457 1032.42989746 85 1032 C85 1031.34 85 1030.68 85 1030 C84.46375 1029.7525 83.9275 1029.505 83.375 1029.25 C80.43575748 1027.70303025 77.74245592 1025.86985631 75 1024 C75.01160156 1024.60328125 75.02320313 1025.2065625 75.03515625 1025.828125 C75.04869141 1027.02695313 75.04869141 1027.02695313 75.0625 1028.25 C75.07990234 1029.43335938 75.07990234 1029.43335938 75.09765625 1030.640625 C75 1033 75 1033 74.52294922 1034.9034729 C73.64445758 1038.42538568 73.41485852 1042.04290121 73.0625 1045.6484375 C72.97750244 1046.49741608 72.89250488 1047.34639465 72.80493164 1048.22109985 C72.62536505 1050.02144451 72.44726004 1051.82193545 72.27050781 1053.62255859 C72.00434538 1056.3307854 71.73303686 1059.03845775 71.4609375 1061.74609375 C70.58849752 1070.50077746 69.79610618 1079.24774088 69.20605469 1088.02636719 C68.91884274 1092.17120307 68.53286576 1096.30306591 68.125 1100.4375 C68.0002832 1101.72527344 68.0002832 1101.72527344 67.87304688 1103.0390625 C67.68726994 1104.95563891 67.50070897 1106.87213945 67.31347656 1108.78857422 C66.96484334 1112.36016405 66.61894457 1115.93201266 66.2734375 1119.50390625 C66.14678711 1120.81311035 66.02013672 1122.12231445 65.88964844 1123.47119141 C65.75976187 1124.81412724 65.62987907 1126.15706344 65.5 1127.5 C65.24222495 1130.16536821 64.98440548 1132.83073211 64.7265625 1135.49609375 C64.5414209 1137.41010986 64.5414209 1137.41010986 64.35253906 1139.36279297 C64.03598588 1142.62872739 63.71748994 1145.89446527 63.3984375 1149.16015625 C62.56081284 1157.77973097 61.79640803 1166.39051257 61.2109375 1175.03125 C60.85501057 1180.04059197 60.32848048 1185.02786264 59.77685547 1190.01904297 C58.68124522 1199.93528052 57.74286375 1209.81152918 57.24609375 1219.77734375 C57.04699862 1222.38454191 56.6395067 1224.49650478 56 1227 C55.79999921 1229.20556423 55.63722843 1231.41464205 55.5 1233.625 C55.2214277 1237.88759835 54.90560481 1242.12909158 54.4375 1246.375 C54.11435836 1249.39761717 53.9608888 1252.33550139 54 1255.375 C54 1258.3790003 53.71984303 1260.18612831 53 1263 C52.8039236 1264.61388576 52.63968126 1266.23182106 52.5 1267.8515625 C52.4175 1268.78613281 52.335 1269.72070312 52.25 1270.68359375 C52.1675 1271.65425781 52.085 1272.62492187 52 1273.625 C51.83378343 1275.53389341 51.6671192 1277.4427479 51.5 1279.3515625 C51.41814453 1280.29314209 51.33628906 1281.23472168 51.25195312 1282.20483398 C51.00967221 1284.89269658 50.74376326 1287.57702916 50.46875 1290.26171875 C50.06528212 1294.23335565 49.7567487 1298.20331029 49.5 1302.1875 C49.17963458 1306.83780435 48.68319174 1311.38845574 48 1316 C47.24628603 1323.29513266 47.24628603 1323.29513266 47.03515625 1330.6171875 C47 1333 47 1333 46.51757812 1334.83740234 C45.93914348 1337.25427692 45.78954623 1339.50205987 45.68359375 1341.984375 C45.62075195 1343.38623047 45.62075195 1343.38623047 45.55664062 1344.81640625 C45.49766602 1346.26853516 45.49766602 1346.26853516 45.4375 1347.75 C45.37272461 1349.22533203 45.37272461 1349.22533203 45.30664062 1350.73046875 C45.20077948 1353.15351275 45.09869829 1355.5766554 45 1358 C44.34 1358 43.68 1358 43 1358 C43.01740234 1359.03833984 43.01740234 1359.03833984 43.03515625 1360.09765625 C43.12731554 1370.09035666 42.99878838 1380.18505405 41 1390 C40.65994983 1392.72897407 40.34620827 1395.45269094 40.0625 1398.1875 C39.97822754 1398.99396973 39.89395508 1399.80043945 39.80712891 1400.63134766 C39.05667791 1408.03736964 38.45098207 1415.45359284 37.875 1422.875 C37.78742432 1423.99801514 37.69984863 1425.12103027 37.60961914 1426.27807617 C37.26358367 1430.86574678 36.95099859 1435.39699485 37 1440 C36.34 1440 35.68 1440 35 1440 C35.185625 1440.763125 35.37125 1441.52625 35.5625 1442.3125 C36.27325394 1448.30314038 35.50317227 1454.20459852 34.4375 1460.125 C34.05218678 1462.65705833 33.97000527 1464.88794767 34 1467.4375 C34.04613739 1471.39213375 33.61795284 1475.08629865 33 1479 C32.84336573 1480.4469199 32.69729396 1481.89500097 32.55859375 1483.34375 C32.1549224 1487.47263453 31.72541593 1491.59792637 31.28125 1495.72265625 C29.99039832 1507.81150673 28.72430739 1519.85805848 28.2109375 1532.0078125 C28 1535 28 1535 27 1538 C26.95632422 1539.45767916 26.96019686 1540.91720995 27 1542.375 C27.04367208 1545.7541274 26.71532168 1548.69163725 26 1552 C25.96227087 1553.9996441 25.95350094 1556.00054061 26 1558 C25.34 1558 24.68 1558 24 1558 C24.185625 1559.11375 24.37125 1560.2275 24.5625 1561.375 C24.95729445 1564.54790065 24.96290812 1567.41009783 24.609375 1570.5859375 C24.51342041 1571.46523926 24.41746582 1572.34454102 24.31860352 1573.25048828 C23.89796811 1576.88052345 23.47551787 1580.51031922 23.04882812 1584.13964844 C21.20832668 1599.98288381 19.8442597 1615.85909282 18.48779297 1631.74975586 C17.48868289 1643.44347682 16.45255889 1655.13162847 15.3125 1666.8125 C15.19326172 1668.03743164 15.07402344 1669.26236328 14.95117188 1670.52441406 C14.49546765 1675.15389488 14.03119688 1679.77927214 13.48046875 1684.3984375 C12.60157229 1692.16276345 12.24133893 1699.98313001 11.75 1707.77929688 C11.6675 1709.03419922 11.585 1710.28910156 11.5 1711.58203125 C11.4278125 1712.71874268 11.355625 1713.8554541 11.28125 1715.02661133 C11.04759137 1717.49686169 10.60592274 1719.6122662 10 1722 C9.81085178 1723.9318524 9.66002495 1725.86761792 9.53515625 1727.8046875 C9.45837646 1728.93874023 9.38159668 1730.07279297 9.30249023 1731.24121094 C9.22329346 1732.44036133 9.14409668 1733.63951172 9.0625 1734.875 C8.47827154 1743.29453501 7.76254991 1751.57584977 6.43359375 1759.91015625 C5.77983698 1764.56890948 5.55535296 1769.23958048 5.28125 1773.93359375 C4.8370308 1780.92831086 3.98520533 1787.88988423 3.22753906 1794.85595703 C2.76310923 1799.23216174 2.3744239 1803.61529911 2 1808 C1.34 1808 0.68 1808 0 1808 C-0.0501123 1807.43829102 -0.10022461 1806.87658203 -0.15185547 1806.29785156 C-1.14716348 1795.17116567 -2.18349393 1784.05091837 -3.31762695 1772.9375 C-3.88960812 1767.27129379 -4.36932183 1761.60430606 -4.75390625 1755.921875 C-4.99727857 1753.03231159 -5.36014032 1750.16901537 -5.73022461 1747.29345703 C-6.2672973 1742.72761007 -6.61800547 1738.14345001 -7 1733.5625 C-7.66697123 1725.53102005 -7.66697123 1725.53102005 -8.5 1717.515625 C-9.12258026 1712.08324741 -9.55711988 1706.63700148 -10 1701.1875 C-10.0825 1700.18396484 -10.165 1699.18042969 -10.25 1698.14648438 C-10.3325 1697.14294922 -10.415 1696.13941406 -10.5 1695.10546875 C-10.58378906 1694.08791504 -10.66757812 1693.07036133 -10.75390625 1692.02197266 C-10.91126423 1690.08965418 -11.06524109 1688.15705546 -11.21484375 1686.22412109 C-12.01943251 1676.05560134 -13.15871171 1665.92182027 -14.27050781 1655.78320312 C-15.33942668 1646.01134115 -16.23366964 1636.26822407 -16.79394531 1626.45361328 C-17.04620428 1622.22558559 -17.4263104 1618.02346391 -17.875 1613.8125 C-17.95741943 1613.01207275 -18.03983887 1612.21164551 -18.12475586 1611.38696289 C-18.41336563 1608.5909741 -18.70675561 1605.7955064 -19 1603 C-19.38834871 1599.26465125 -19.77568743 1595.52919919 -20.16259766 1591.79370117 C-20.4229317 1589.2833372 -20.68427272 1586.77307738 -20.94677734 1584.26293945 C-21.18906906 1581.93716302 -21.42843246 1579.61107925 -21.66455078 1577.28466797 C-21.8833564 1575.1421565 -22.11050562 1573.00047586 -22.34716797 1570.85986328 C-22.44787598 1569.89677246 -22.54858398 1568.93368164 -22.65234375 1567.94140625 C-22.74378662 1567.10424072 -22.83522949 1566.2670752 -22.92944336 1565.40454102 C-23.00619332 1562.78893421 -22.60448441 1560.53872136 -22 1558 C-22.66 1557.67 -23.32 1557.34 -24 1557 C-23.9690625 1555.4840625 -23.9690625 1555.4840625 -23.9375 1553.9375 C-23.99698694 1550.18982285 -24.46140434 1546.70284516 -25 1543 C-25 1541 -25 1539 -25 1537 C-25.15726563 1536.43796875 -25.31453125 1535.8759375 -25.4765625 1535.296875 C-26.21976096 1532.03567578 -26.2468716 1528.76734855 -26.375 1525.4375 C-26.80371956 1516.14987544 -27.83775696 1506.9565119 -28.90917969 1497.72412109 C-29.72444995 1490.65139994 -30.40764999 1483.61452523 -30.7890625 1476.50390625 C-30.92580164 1474.05485829 -30.92580164 1474.05485829 -31.5234375 1471.953125 C-32.09042089 1469.62942256 -32.06018819 1467.57621892 -32 1465.1875 C-31.95729491 1461.01460287 -32.3247206 1457.12670746 -33 1453 C-33.22106187 1451.43924996 -33.42885359 1449.8765766 -33.625 1448.3125 C-33.72039063 1447.58675781 -33.81578125 1446.86101562 -33.9140625 1446.11328125 C-34.00511747 1443.87415684 -33.64598473 1442.13560622 -33 1440 C-33.66 1440 -34.32 1440 -35 1440 C-34.97035156 1438.845 -34.94070313 1437.69 -34.91015625 1436.5 C-34.91156433 1429.3019155 -35.73415364 1422.15571386 -36.4375 1415 C-36.57394156 1413.57555659 -36.7100117 1412.15107756 -36.84570312 1410.7265625 C-37.50825212 1403.81115089 -38.21654536 1396.90287064 -39 1390 C-40.0825642 1379.38485657 -41.11444217 1368.67581943 -41 1358 C-41.66 1358 -42.32 1358 -43 1358 C-42.979375 1356.824375 -42.95875 1355.64875 -42.9375 1354.4375 C-42.9375 1349.96874015 -43.15593186 1345.5211075 -43.4375 1341.0625 C-43.51871094 1339.77472656 -43.59992187 1338.48695312 -43.68359375 1337.16015625 C-43.8004064 1334.10261973 -43.8004064 1334.10261973 -45 1332 C-45.07015144 1329.5622375 -44.99732254 1327.14089364 -44.9375 1324.703125 C-45.00669198 1321.71057192 -45.49861835 1318.95258085 -46 1316 C-46.37963857 1312.58763331 -46.68872148 1309.16920002 -47 1305.75 C-47.16642752 1303.95310283 -47.3330935 1302.15622774 -47.5 1300.359375 C-47.62375 1299.01649414 -47.62375 1299.01649414 -47.75 1297.64648438 C-47.98649635 1295.14294876 -48.24117403 1292.64193535 -48.5 1290.140625 C-49.22474187 1282.96398183 -49.72504352 1275.76776303 -50.25 1268.57421875 C-50.37375 1266.95966797 -50.37375 1266.95966797 -50.5 1265.3125 C-50.5721875 1264.33925781 -50.644375 1263.36601563 -50.71875 1262.36328125 C-50.86664939 1259.98471659 -50.86664939 1259.98471659 -52 1258 C-52.02068918 1256.29166491 -51.9910086 1254.58262222 -51.9375 1252.875 C-51.87376935 1247.01177986 -52.45948857 1241.39807132 -53.28881836 1235.60888672 C-53.83966988 1231.6944503 -54 1227.94588742 -54 1224 C-54.32387422 1222.3314694 -54.65892688 1220.6651 -55 1219 C-55.39375315 1215.69323075 -55.69540704 1212.3785237 -56 1209.0625 C-56.13353882 1207.64155029 -56.13353882 1207.64155029 -56.26977539 1206.19189453 C-56.72659493 1201.2555539 -57.13019539 1196.32323144 -57.4375 1191.375 C-57.88143048 1184.66055145 -58.66536863 1177.99629161 -59.4375 1171.3125 C-60.65005084 1160.7712252 -61.56147256 1150.23772681 -62.30053711 1139.65356445 C-63.10643447 1128.19070185 -64.26994041 1116.77916669 -65.5 1105.35546875 C-66.72830655 1093.91206597 -67.77409572 1082.4601852 -68.74560547 1070.9921875 C-69.17761822 1065.91085515 -69.62043136 1060.83046559 -70.0625 1055.75 C-70.14177734 1054.83444336 -70.22105469 1053.91888672 -70.30273438 1052.97558594 C-70.4557444 1051.21211321 -70.61016696 1049.44876237 -70.76611328 1047.68554688 C-70.93242235 1045.77594376 -71.09149307 1043.86570423 -71.24560547 1041.95507812 C-71.3282666 1040.96443359 -71.41092773 1039.97378906 -71.49609375 1038.953125 C-71.56884521 1038.05239258 -71.64159668 1037.15166016 -71.71655273 1036.22363281 C-71.88004318 1033.96447518 -71.88004318 1033.96447518 -73 1032 C-73.13415472 1029.3276379 -73.04318541 1026.67749512 -73 1024 C-73.55429687 1024.433125 -74.10859375 1024.86625 -74.6796875 1025.3125 C-75.40414062 1025.869375 -76.12859375 1026.42625 -76.875 1027 C-77.59429688 1027.556875 -78.31359375 1028.11375 -79.0546875 1028.6875 C-81 1030 -81 1030 -83 1030 C-83 1030.66 -83 1031.32 -83 1032 C-83.65556885 1032.41725342 -84.3111377 1032.83450684 -84.98657227 1033.2644043 C-87.27317123 1034.85069428 -87.27317123 1034.85069428 -87.37475586 1037.63208008 C-87.29559937 1039.18511841 -87.29559937 1039.18511841 -87.21484375 1040.76953125 C-87.17939453 1041.90583984 -87.14394531 1043.04214844 -87.10742188 1044.21289062 C-86.99468371 1046.60112565 -86.87753885 1048.98915696 -86.75585938 1051.37695312 C-86.46203817 1061.18392878 -86.46203817 1061.18392878 -89.15625 1064.5859375 C-91.87782936 1066.89628921 -94.5235306 1068.94008909 -97.5625 1070.8125 C-98.95662109 1071.68841797 -98.95662109 1071.68841797 -100.37890625 1072.58203125 C-102.65563733 1073.81370544 -104.47342446 1074.54224396 -107 1075 C-107 1075.66 -107 1076.32 -107 1077 C-107.51046875 1077.25652344 -108.0209375 1077.51304688 -108.546875 1077.77734375 C-115.58096896 1081.4814677 -121.72351661 1086.14687213 -128 1091 C-141.00422316 1101.04067571 -141.00422316 1101.04067571 -147 1102 C-147 1102.99 -147 1103.98 -147 1105 C-147.99 1105 -148.98 1105 -150 1105 C-150 1105.66 -150 1106.32 -150 1107 C-151.828125 1108.40234375 -151.828125 1108.40234375 -154.25 1109.9375 C-156.63123581 1111.4588451 -158.94157556 1112.95450039 -161.171875 1114.69140625 C-163 1116 -163 1116 -165 1116 C-165 1116.66 -165 1117.32 -165 1118 C-167.01171875 1119.69140625 -167.01171875 1119.69140625 -169.6875 1121.5625 C-170.55761719 1122.18253906 -171.42773438 1122.80257813 -172.32421875 1123.44140625 C-174.971551 1124.98342898 -176.98555914 1125.60350598 -180 1126 C-180 1126.66 -180 1127.32 -180 1128 C-180.66 1128 -181.32 1128 -182 1128 C-182.33 1128.99 -182.66 1129.98 -183 1131 C-183.78375 1131.0825 -184.5675 1131.165 -185.375 1131.25 C-186.24125 1131.4975 -187.1075 1131.745 -188 1132 C-188.44859375 1132.92425781 -188.44859375 1132.92425781 -188.90625 1133.8671875 C-190.25627717 1136.49974049 -191.62254403 1137.3316735 -194.125 1138.875 C-198.04871072 1141.3598055 -201.72414737 1144.02508581 -205.37109375 1146.8984375 C-207 1148 -207 1148 -209 1148 C-209 1148.66 -209 1149.32 -209 1150 C-210.0725 1150.5775 -211.145 1151.155 -212.25 1151.75 C-214.60767032 1153.08239084 -216.15222793 1154.1568409 -218.0625 1156.125 C-220.47926931 1158.46380901 -222.84774855 1158.94924952 -226 1160 C-226.33 1160.99 -226.66 1161.98 -227 1163 C-228.33160378 1163.95602323 -229.67538663 1164.8983226 -231.06640625 1165.765625 C-233.40237128 1167.25686732 -235.62719888 1168.87908949 -237.875 1170.5 C-240.99689656 1172.70702053 -244.04403462 1174.61627091 -247.5 1176.25 C-251.17571587 1177.72608996 -251.17571587 1177.72608996 -253 1181 C-253.99 1181 -254.98 1181 -256 1181 C-256.33 1181.99 -256.66 1182.98 -257 1184 C-258.32 1184 -259.64 1184 -261 1184 C-261.33 1185.32 -261.66 1186.64 -262 1188 C-262.99 1188 -263.98 1188 -265 1188 C-265.226875 1188.61875 -265.45375 1189.2375 -265.6875 1189.875 C-267.39400526 1192.63791327 -269.02739286 1192.83995819 -272 1194 C-273.01241685 1195.32392972 -274.01439389 1196.65599167 -275 1198 C-275.99 1198 -276.98 1198 -278 1198 C-278 1198.66 -278 1199.32 -278 1200 C-279.32 1200 -280.64 1200 -282 1200 C-282.66 1201.32 -283.32 1202.64 -284 1204 C-285.32 1204 -286.64 1204 -288 1204 C-288 1204.99 -288 1205.98 -288 1207 C-289.175625 1207.12375 -289.175625 1207.12375 -290.375 1207.25 C-291.674375 1207.62125 -291.674375 1207.62125 -293 1208 C-293.4640625 1208.9590625 -293.4640625 1208.9590625 -293.9375 1209.9375 C-295 1212 -295 1212 -298.0625 1213.0625 C-299.031875 1213.371875 -300.00125 1213.68125 -301 1214 C-301.33 1214.99 -301.66 1215.98 -302 1217 C-303.99107248 1218.01765927 -305.99218823 1219.01577854 -308 1220 C-308.61875 1220.61875 -309.2375 1221.2375 -309.875 1221.875 C-312.36642666 1224.36642666 -315.04387551 1225.95785675 -318.04296875 1227.77734375 C-321.38860499 1229.86753166 -324.27814257 1232.27814257 -327.0625 1235.0625 C-328.951283 1236.951283 -330.7552181 1238.55175361 -333 1240 C-333.99 1240 -334.98 1240 -336 1240 C-336 1240.66 -336 1241.32 -336 1242 C-337.65 1242.33 -339.3 1242.66 -341 1243 C-341.33 1243.99 -341.66 1244.98 -342 1246 C-343.98320018 1247.03291676 -345.98347806 1248.0337499 -348 1249 C-348.33 1249.66 -348.66 1250.32 -349 1251 C-349.99 1251.33 -350.98 1251.66 -352 1252 C-353.02019573 1252.9793879 -354.02149805 1253.97895449 -355 1255 C-357.77100394 1256.38550197 -359.9334706 1256.1877467 -363 1256 C-363.99 1255.34 -364.98 1254.68 -366 1254 C-365.67 1253.01 -365.34 1252.02 -365 1251 C-364.34 1251 -363.68 1251 -363 1251 C-362.896875 1250.4225 -362.79375 1249.845 -362.6875 1249.25 C-361.89103535 1246.64338842 -360.80934723 1245.0264689 -359 1243 C-358.34 1243 -357.68 1243 -357 1243 C-356.6596875 1241.9171875 -356.6596875 1241.9171875 -356.3125 1240.8125 C-354.75173074 1237.46799444 -352.6266129 1235.55926385 -350 1233 C-349.67 1232.01 -349.34 1231.02 -349 1230 C-348.34 1230 -347.68 1230 -347 1230 C-346.731875 1229.2575 -346.46375 1228.515 -346.1875 1227.75 C-345.0392528 1225.09090121 -343.96498625 1223.12218515 -342 1221 C-341.01 1221 -340.02 1221 -339 1221 C-338.773125 1220.13375 -338.54625 1219.2675 -338.3125 1218.375 C-336.639267 1214.07240086 -334.27675521 1210.13837761 -330 1208 C-329.505 1207.154375 -329.01 1206.30875 -328.5 1205.4375 C-328.005 1204.633125 -327.51 1203.82875 -327 1203 C-326.34 1203 -325.68 1203 -325 1203 C-324.82791016 1202.12601563 -324.82791016 1202.12601563 -324.65234375 1201.234375 C-323.95175938 1198.83476865 -323.01807405 1197.27139067 -321.5625 1195.25 C-321.13066406 1194.63640625 -320.69882812 1194.0228125 -320.25390625 1193.390625 C-319.84011719 1192.93171875 -319.42632813 1192.4728125 -319 1192 C-318.34 1192 -317.68 1192 -317 1192 C-316.773125 1191.29875 -316.54625 1190.5975 -316.3125 1189.875 C-314.66158712 1186.25871465 -312.7091165 1183.91230024 -310 1181 C-309.34 1181 -308.68 1181 -308 1181 C-307.7525 1180.29488281 -307.505 1179.58976562 -307.25 1178.86328125 C-305.83896341 1175.63112557 -304.0749274 1173.03671098 -302 1170.1875 C-301.29875 1169.21167969 -300.5975 1168.23585938 -299.875 1167.23046875 C-299.25625 1166.49441406 -298.6375 1165.75835938 -298 1165 C-297.34 1165 -296.68 1165 -296 1165 C-295.6596875 1164.2265625 -295.6596875 1164.2265625 -295.3125 1163.4375 C-292.29747831 1157.838174 -288.4840147 1153.4840147 -284 1149 C-282.65783025 1147.00591923 -281.3227887 1145.00698975 -280 1143 C-279.34 1142.67 -278.68 1142.34 -278 1142 C-276.86649466 1139.98330173 -276.86649466 1139.98330173 -276 1138 C-275.34 1138 -274.68 1138 -274 1138 C-274 1137.01 -274 1136.02 -274 1135 C-272.8125 1133.6875 -272.8125 1133.6875 -271 1132 C-270.13849702 1130.94343975 -269.28484144 1129.88045104 -268.4375 1128.8125 C-267.633125 1127.884375 -266.82875 1126.95625 -266 1126 C-265.34 1126 -264.68 1126 -264 1126 C-263.67 1124.35 -263.34 1122.7 -263 1121 C-262.01 1120.67 -261.02 1120.34 -260 1120 C-260 1119.34 -260 1118.68 -260 1118 C-259.34 1118 -258.68 1118 -258 1118 C-257.34 1116.35 -256.68 1114.7 -256 1113 C-255.34 1113 -254.68 1113 -254 1113 C-253.9175 1112.443125 -253.835 1111.88625 -253.75 1111.3125 C-252.76104459 1108.26322081 -251.15242534 1106.34810037 -249 1104 C-248.34 1104 -247.68 1104 -247 1104 C-246.7525 1103.21625 -246.505 1102.4325 -246.25 1101.625 C-244.77860006 1098.53506013 -243.92681545 1098.46340773 -241 1097 C-240.31653318 1095.34015202 -239.65411685 1093.67163195 -239 1092 C-237.16374953 1089.20412711 -235.25732784 1086.47201935 -233 1084 C-232.34 1084 -231.68 1084 -231 1084 C-230.87625 1083.360625 -230.7525 1082.72125 -230.625 1082.0625 C-230.315625 1081.0415625 -230.315625 1081.0415625 -230 1080 C-229.34 1079.67 -228.68 1079.34 -228 1079 C-227.67 1078.01 -227.34 1077.02 -227 1076 C-226.34 1075.67 -225.68 1075.34 -225 1075 C-224.67 1074.01 -224.34 1073.02 -224 1072 C-223 1071 -222 1070 -221 1069 C-220.525625 1068.195625 -220.05125 1067.39125 -219.5625 1066.5625 C-217.95782194 1063.93082798 -216.32023371 1062.02084871 -214 1060 C-213.34 1060 -212.68 1060 -212 1060 C-211.92652344 1059.46890625 -211.85304688 1058.9378125 -211.77734375 1058.390625 C-210.68956324 1055.04528996 -208.67283612 1052.51094053 -206.5625 1049.75 C-206.15451172 1049.19570312 -205.74652344 1048.64140625 -205.32617188 1048.0703125 C-204.27046691 1046.67189091 -203.14012413 1045.33049348 -202 1044 C-201.34 1044 -200.68 1044 -200 1044 C-199.34 1042.35 -198.68 1040.7 -198 1039 C-197.34 1039 -196.68 1039 -196 1039 C-195.67 1037.68 -195.34 1036.36 -195 1035 C-194.34 1035 -193.68 1035 -193 1035 C-192.67 1034.01 -192.34 1033.02 -192 1032 C-191.34 1032 -190.68 1032 -190 1032 C-189.7525 1031.28070312 -189.505 1030.56140625 -189.25 1029.8203125 C-187.86879113 1026.70395999 -186.17636006 1024.49143287 -184 1021.875 C-181.86263907 1019.28973622 -179.86241106 1016.79361659 -178 1014 C-177.34 1014 -176.68 1014 -176 1014 C-176 1013.01 -176 1012.02 -176 1011 C-175.34 1011 -174.68 1011 -174 1011 C-173.67 1009.68 -173.34 1008.36 -173 1007 C-172.34 1007 -171.68 1007 -171 1007 C-171 1006.34 -171 1005.68 -171 1005 C-170.34 1005 -169.68 1005 -169 1005 C-168.7525 1004.28457031 -168.505 1003.56914063 -168.25 1002.83203125 C-166.86136405 999.68590294 -165.15536054 997.36189037 -163 994.6875 C-162.29875 993.80449219 -161.5975 992.92148438 -160.875 992.01171875 C-160.25625 991.34785156 -159.6375 990.68398437 -159 990 C-158.34 990 -157.68 990 -157 990 C-156.76410156 989.30261719 -156.52820313 988.60523438 -156.28515625 987.88671875 C-154.75196944 984.4428736 -152.74311884 981.79167041 -150.4375 978.8125 C-147.45571326 975.07228756 -147.45571326 975.07228756 -145 971 C-152.57956634 969.52141035 -160.03962651 968.6893313 -167.7421875 968.34204102 C-172.80556005 968.09721998 -172.80556005 968.09721998 -175 967 C-177.62868441 966.79201618 -180.24235262 966.62580793 -182.875 966.5 C-191.0507404 966.10510735 -191.0507404 966.10510735 -195 965 C-196.64229622 964.78369757 -198.28877054 964.59754616 -199.9375 964.4375 C-200.77152344 964.35371094 -201.60554687 964.26992187 -202.46484375 964.18359375 C-204.99267789 963.96390674 -204.99267789 963.96390674 -207.50390625 964.03515625 C-210 964 -210 964 -212.12524414 963.55419922 C-215.89176418 962.82808453 -219.67827152 962.46945804 -223.4921875 962.09765625 C-224.31518341 962.01503036 -225.13817932 961.93240448 -225.9861145 961.84727478 C-229.48387442 961.49619352 -232.98218628 961.15076073 -236.48046875 960.80493164 C-246.25934112 959.83499621 -256.00605936 958.80354538 -265.73657227 957.41992188 C-270.18006464 956.84815507 -274.62767585 956.52798441 -279.09765625 956.24609375 C-282.10646698 955.99097252 -285.02559811 955.51434027 -288 955 C-290.24943957 954.73405641 -292.50007199 954.50623167 -294.75390625 954.28125 C-297 954 -297 954 -299.390625 953.49609375 C-302.33505023 952.93630033 -305.1953411 952.7376682 -308.1875 952.5625 C-319.42126199 951.80127999 -330.57711848 950.42404367 -341.75 949.05078125 C-344.60413933 948.70029769 -347.45830912 948.35006344 -350.3125 948 C-351.02901733 947.91200134 -351.74553467 947.82400269 -352.48376465 947.7333374 C-362.9040471 946.45674257 -373.32709216 945.31805979 -383.78515625 944.39453125 C-387.19886095 944.08852572 -390.59345027 943.69526483 -393.99243164 943.2565918 C-397.55326373 942.80147389 -401.12015002 942.40029798 -404.6875 942 C-405.46770508 941.91242432 -406.24791016 941.82484863 -407.05175781 941.73461914 C-412.76137979 941.10665436 -418.47049992 940.61765278 -424.203125 940.24609375 C-427 940 -427 940 -429.70361328 939.54101562 C-433.30807904 938.94943689 -436.91003429 938.51288147 -440.5390625 938.09765625 C-441.25392822 938.01561951 -441.96879395 937.93358276 -442.70532227 937.84906006 C-445.01168198 937.58508891 -447.31831726 937.3236322 -449.625 937.0625 C-450.40945496 936.97318207 -451.19390991 936.88386414 -452.00213623 936.7918396 C-462.65272942 935.57960686 -473.30578768 934.41651746 -483.9765625 933.39453125 C-485.31777685 933.26372146 -486.65892074 933.13218753 -488 933 C-488.80663086 932.92185059 -489.61326172 932.84370117 -490.44433594 932.76318359 C-491.25418945 932.6802002 -492.06404297 932.5972168 -492.8984375 932.51171875 C-493.63497559 932.43783936 -494.37151367 932.36395996 -495.13037109 932.2878418 C-497 932 -497 932 -499 931 C-499.969375 931 -500.93875 931 -501.9375 931 C-505 931 -505 931 -508 930 C-510.2060961 929.8403094 -512.41529022 929.72269243 -514.625 929.625 C-522.24529793 929.22479338 -529.79947641 928.405074 -537.375 927.5 C-538.48697754 927.36932129 -539.59895508 927.23864258 -540.74462891 927.10400391 C-541.78538574 926.97687012 -542.82614258 926.84973633 -543.8984375 926.71875 C-544.83349121 926.60466797 -545.76854492 926.49058594 -546.73193359 926.37304688 C-549 926 -549 926 -551 925 C-552.918125 925.0309375 -552.918125 925.0309375 -554.875 925.0625 C-558.58265242 925.10973124 -561.97923732 924.73253206 -565.625 924.0625 C-571.43194201 923.01136999 -577.16466356 922.62001936 -583.05078125 922.28125 C-589.73734543 921.80505552 -596.35659797 920.8848652 -603 920 C-609.05359813 919.20477173 -615.10576173 918.59794085 -621.1875 918.0625 C-623.1549726 917.88569111 -625.12241996 917.70860113 -627.08984375 917.53125 C-628.07968262 917.44230469 -629.06952148 917.35335937 -630.08935547 917.26171875 C-643.55177932 916.05120723 -656.9807857 914.68227332 -670.40600586 913.10791016 C-677.03691595 912.3331174 -683.66906824 911.59659434 -690.3125 910.9375 C-691.50057251 910.81955078 -691.50057251 910.81955078 -692.71264648 910.69921875 C-696.99030319 910.28022575 -701.26953751 909.88447773 -705.55078125 909.50390625 C-706.48172607 909.41955322 -707.4126709 909.3352002 -708.37182617 909.24829102 C-710.13848412 909.08896751 -711.90555404 908.93411247 -713.6730957 908.78491211 C-719.54741216 908.25374563 -725.23897214 907.25950835 -731 906 C-731 904.68 -731 903.36 -731 902 C-720.43652861 899.63856824 -710.01702188 898.47899941 -699.22949219 897.7019043 C-693.22918781 897.26713262 -687.27452515 896.74291729 -681.3125 895.9375 C-675.41903336 895.14966871 -669.56065903 894.65784159 -663.62890625 894.2734375 C-659.76105964 893.98199588 -655.91471249 893.57129291 -652.0625 893.125 C-641.99322179 891.95854766 -631.90384926 891.00751566 -621.81274414 890.05322266 C-615.5274754 889.45492672 -609.25833634 888.83490485 -603 888 C-595.07755992 886.94477385 -587.23286774 885.95944563 -579.25 885.5 C-573.65810581 885.17659918 -568.30707507 884.42024012 -562.8046875 883.40625 C-559.13017214 882.87400822 -555.56688652 882.89148582 -551.86328125 883.02734375 C-549.98393656 883.21615487 -549.98393656 883.21615487 -549 882 C-546.42305415 881.62542401 -543.86112147 881.30755422 -541.2734375 881.02734375 C-540.49239655 880.93997452 -539.71135559 880.85260529 -538.90664673 880.7625885 C-537.24740864 880.57811043 -535.58792397 880.39583915 -533.92822266 880.21557617 C-531.40585404 879.94086037 -528.88456798 879.657501 -526.36328125 879.37304688 C-524.7500579 879.19478777 -523.13677821 879.01703761 -521.5234375 878.83984375 C-520.7752475 878.75548569 -520.0270575 878.67112762 -519.25619507 878.58421326 C-515.8498534 878.21908233 -512.58976884 878.0010679 -509.15478516 878.01000977 C-505.97177422 878.16460037 -505.97177422 878.16460037 -503 877 C-501.33333333 877 -499.66666667 877 -498 877 C-497.01 876.67 -496.02 876.34 -495 876 C-493.34816505 875.762522 -491.69070005 875.56329742 -490.03125 875.38671875 C-489.00257813 875.27513428 -487.97390625 875.1635498 -486.9140625 875.04858398 C-485.78742188 874.92942627 -484.66078125 874.81026855 -483.5 874.6875 C-481.05201413 874.42251356 -478.60410104 874.15685414 -476.15625 873.890625 C-475.507771 873.82040634 -474.85929199 873.75018768 -474.19116211 873.67784119 C-466.88226434 872.88414403 -459.57912282 872.04105852 -452.27560425 871.19955444 C-440.91045908 869.89076501 -429.5439781 868.60822644 -418.1640625 867.43359375 C-413.5445082 866.95620305 -408.92832353 866.44958049 -404.3125 865.9375 C-403.59312256 865.85806152 -402.87374512 865.77862305 -402.13256836 865.69677734 C-398.88932782 865.33544528 -395.65350799 864.95427968 -392.41796875 864.52734375 C-386.65969812 863.79956135 -380.87426111 863.33378438 -375.09432983 862.81420898 C-363.65054542 861.78033801 -352.24461756 860.60881996 -340.84814453 859.13208008 C-333.03152302 858.1198029 -325.20744107 857.19414161 -317.375 856.3125 C-316.22990967 856.18101562 -315.08481934 856.04953125 -313.9050293 855.9140625 C-312.29301636 855.73423828 -312.29301636 855.73423828 -310.6484375 855.55078125 C-309.70145996 855.44419189 -308.75448242 855.33760254 -307.77880859 855.2277832 C-304.8413043 854.98699147 -301.9459878 854.99251763 -299 855 C-297.33157466 854.67558396 -295.66519519 854.34060811 -294 854 C-291.53467103 853.73067835 -289.06791604 853.50048066 -286.59765625 853.28125 C-284.81434563 853.08816975 -283.03697843 852.8332967 -281.26953125 852.52734375 C-277.06855362 851.84976671 -272.86016514 851.46150886 -268.625 851.0625 C-261.26972071 850.34859546 -253.94311341 849.51368211 -246.61328125 848.5703125 C-240.45808285 847.79438788 -234.29096537 847.12140767 -228.125 846.4375 C-226.41268188 846.24716187 -226.41268188 846.24716187 -224.66577148 846.05297852 C-214.71173372 844.9539156 -204.77836656 843.94825808 -194.78515625 843.28125 C-191.91823205 843.0945844 -191.91823205 843.0945844 -189 842 C-185.8162202 841.74185569 -182.63862297 841.55855775 -179.44921875 841.39453125 C-176.41878033 841.22119256 -173.89654151 840.96551384 -171 840 C-168.47640912 839.8195389 -165.96396209 839.67651739 -163.4375 839.5625 C-157.14537464 839.23294638 -151.13289634 838.51848155 -145 837 C-148.44845062 831.71726714 -151.99296873 826.58584738 -155.8984375 821.62890625 C-157 820 -157 820 -157 818 C-157.57234375 817.7834375 -158.1446875 817.566875 -158.734375 817.34375 C-161.74885559 815.55585116 -163.22666458 813.34765726 -165.25 810.5 C-165.95640625 809.5203125 -166.6628125 808.540625 -167.390625 807.53125 C-169 805 -169 805 -169 803 C-169.66 803 -170.32 803 -171 803 C-171 802.34 -171 801.68 -171 801 C-171.99 800.67 -172.98 800.34 -174 800 C-174 799.01 -174 798.02 -174 797 C-174.66 797 -175.32 797 -176 797 C-176 796.01 -176 795.02 -176 794 C-176.99 793.67 -177.98 793.34 -179 793 C-179.94518825 791.64973108 -180.88011695 790.29059303 -181.75 788.890625 C-183.82571457 785.75110671 -186.24287628 782.87644695 -188.609375 779.953125 C-190 778 -190 778 -190 776 C-190.99 775.67 -191.98 775.34 -193 775 C-193 774.34 -193 773.68 -193 773 C-193.99 772.67 -194.98 772.34 -196 772 C-196 771.01 -196 770.02 -196 769 C-196.66 769 -197.32 769 -198 769 C-198.66 767.35 -199.32 765.7 -200 764 C-200.66 764 -201.32 764 -202 764 C-203.79938711 761.93217973 -205.47146088 759.86674414 -207.125 757.6875 C-207.82689453 756.79514648 -207.82689453 756.79514648 -208.54296875 755.88476562 C-212 751.37449891 -212 751.37449891 -212 748 C-212.99 747.67 -213.98 747.34 -215 747 C-216.5 745.2578125 -216.5 745.2578125 -218 743.125 C-219.45881044 741.06594985 -220.80887123 739.18469655 -222.625 737.4296875 C-224 736 -224 736 -225 733 C-225.66 732.67 -226.32 732.34 -227 732 C-227.33 731.01 -227.66 730.02 -228 729 C-228.99 728.34 -229.98 727.68 -231 727 C-231 726.01 -231 725.02 -231 724 C-231.59296875 723.7628125 -232.1859375 723.525625 -232.796875 723.28125 C-235.48100509 721.72026654 -236.57842113 720.10023379 -238.25 717.5 C-238.77078125 716.7059375 -239.2915625 715.911875 -239.828125 715.09375 C-241 713 -241 713 -241 711 C-241.61875 710.773125 -242.2375 710.54625 -242.875 710.3125 C-245.61410209 708.62070165 -246.05024472 707.00755839 -247 704 C-247.66 704 -248.32 704 -249 704 C-254 698.64285714 -254 698.64285714 -254 695 C-254.99 694.67 -255.98 694.34 -257 694 C-257.6875 691.9375 -257.6875 691.9375 -258 690 C-258.66 690 -259.32 690 -260 690 C-260 689.34 -260 688.68 -260 688 C-260.99 687.67 -261.98 687.34 -263 687 C-263.0825 686.21625 -263.165 685.4325 -263.25 684.625 C-263.4975 683.75875 -263.745 682.8925 -264 682 C-265.32407669 681.31513275 -266.65909241 680.65129797 -268 680 C-269.3703055 678.02514795 -270.70672372 676.02613283 -272 674 C-272.66 673.67 -273.32 673.34 -274 673 C-274 672.01 -274 671.02 -274 670 C-274.99 669.67 -275.98 669.34 -277 669 C-277.33 668.01 -277.66 667.02 -278 666 C-278.763125 665.236875 -279.52625 664.47375 -280.3125 663.6875 C-283.02745893 660.97254107 -284.87672703 658.18490945 -287 655 C-288.6459651 653.31288577 -290.31237149 651.6454378 -292 650 C-296 645.35135135 -296 645.35135135 -296 643 C-296.66 643 -297.32 643 -298 643 C-299.3671875 641.4609375 -299.3671875 641.4609375 -300.875 639.375 C-301.4009375 638.64796875 -301.926875 637.9209375 -302.46875 637.171875 C-302.9740625 636.45515625 -303.479375 635.7384375 -304 635 C-304.4228125 634.40703125 -304.845625 633.8140625 -305.28125 633.203125 C-308 629.28035714 -308 629.28035714 -308 627 C-308.99 626.67 -309.98 626.34 -311 626 C-312.60546875 624.22265625 -312.60546875 624.22265625 -314.1875 622.0625 C-314.71730469 621.35222656 -315.24710938 620.64195312 -315.79296875 619.91015625 C-317 618 -317 618 -317 616 C-317.99 615.67 -318.98 615.34 -320 615 C-321.38671875 613.4765625 -321.38671875 613.4765625 -322.6875 611.625 C-323.12449219 611.01914062 -323.56148437 610.41328125 -324.01171875 609.7890625 C-325 608 -325 608 -325 605 C-325.639375 604.731875 -326.27875 604.46375 -326.9375 604.1875 C-329 603 -329 603 -330 600 C-332.16628019 597.71970506 -334.36160329 595.54719718 -336.75 593.5 C-338.44395709 591.4672515 -338.65107359 589.58205543 -339 587 C-339.5775 586.95875 -340.155 586.9175 -340.75 586.875 C-344.16879475 585.54546871 -345.22666645 583.10333371 -347 580 C-347 579.34 -347 578.68 -347 578 C-347.66 578 -348.32 578 -349 578 C-350.01351664 576.34151823 -351.01120795 574.67334039 -352 573 C-352.70125 572.319375 -353.4025 571.63875 -354.125 570.9375 C-356.15247266 568.84244492 -356.33955534 567.73612786 -357 565 C-357.99 564.67 -358.98 564.34 -360 564 C-362.32265612 561.41927097 -363 560.54823932 -363 557 C-363.99 556.67 -364.98 556.34 -366 556 C-365.67 555.01 -365.34 554.02 -365 553 C-362.2201184 551.6100592 -360.0813674 551.81511796 -357 552 C-353.3 553.4 -353.3 553.4 -352 556 C-351.01 556.33 -350.02 556.66 -349 557 C-348.67 557.66 -348.34 558.32 -348 559 C-346.34948712 560.11634152 -346.34948712 560.11634152 -344.4375 561.125 C-342.7359375 562.053125 -342.7359375 562.053125 -341 563 C-341 563.66 -341 564.32 -341 565 C-339.35 565.33 -337.7 565.66 -336 566 C-336 566.66 -336 567.32 -336 568 C-335.46375 568.0825 -334.9275 568.165 -334.375 568.25 C-328.21507892 570.19523824 -323.8827849 574.82644429 -319.64453125 579.4921875 C-317.07440946 581.8486412 -314.0379646 583.2181446 -310.9609375 584.81640625 C-309 586 -309 586 -308 588 C-306.34948712 589.11634152 -306.34948712 589.11634152 -304.4375 590.125 C-302.7359375 591.053125 -302.7359375 591.053125 -301 592 C-301 592.66 -301 593.32 -301 594 C-300.05125 594.2475 -299.1025 594.495 -298.125 594.75 C-294.51677029 596.19329188 -294.5786929 596.73736801 -293 600 C-290.44480079 600.81171228 -290.44480079 600.81171228 -288 601 C-288 601.99 -288 602.98 -288 604 C-286.35 604.33 -284.7 604.66 -283 605 C-282.67 605.99 -282.34 606.98 -282 608 C-280.68 608 -279.36 608 -278 608 C-278 608.66 -278 609.32 -278 610 C-277.4225 610.0825 -276.845 610.165 -276.25 610.25 C-273.36130421 611.2128986 -272.10880839 612.82728832 -270 615 C-269.0925 615.53625 -268.185 616.0725 -267.25 616.625 C-266.13625 617.305625 -266.13625 617.305625 -265 618 C-265 618.66 -265 619.32 -265 620 C-263.68 620.33 -262.36 620.66 -261 621 C-261 621.99 -261 622.98 -261 624 C-259.35 624.33 -257.7 624.66 -256 625 C-256 625.66 -256 626.32 -256 627 C-255.1028125 627.1546875 -255.1028125 627.1546875 -254.1875 627.3125 C-252 628 -252 628 -250.625 629.3984375 C-248.81137988 631.18589964 -247.07219895 632.14865505 -244.8125 633.3125 C-240.87461993 635.43486393 -237.38696616 637.83511055 -233.86328125 640.58203125 C-232.12327144 641.90618966 -230.34889522 643.08523931 -228.5 644.25 C-227.675 644.8275 -226.85 645.405 -226 646 C-226 646.66 -226 647.32 -226 648 C-225.175 648.185625 -224.35 648.37125 -223.5 648.5625 C-219.44347093 650.22857444 -216.98254794 652.45245452 -213.83203125 655.44140625 C-211.9788847 657.2147432 -211.9788847 657.2147432 -209 658 C-209 658.66 -209 659.32 -209 660 C-208.41863281 660.27070312 -207.83726562 660.54140625 -207.23828125 660.8203125 C-205.00483153 661.99745354 -203.16951599 663.31683672 -201.1875 664.875 C-198.58327701 666.88049508 -196.03278067 668.59522813 -193.125 670.125 C-189.86535903 672.08078458 -189.54654569 672.79644108 -188 676 C-185.44480079 676.81171228 -185.44480079 676.81171228 -183 677 C-182.67 677.99 -182.34 678.98 -182 680 C-181.34 680 -180.68 680 -180 680 C-180 680.66 -180 681.32 -180 682 C-179.195625 682.20625 -178.39125 682.4125 -177.5625 682.625 C-172.94530207 684.40707639 -168.83757417 686.86171712 -165 690 C-165 690.66 -165 691.32 -165 692 C-164.278125 692.2475 -163.55625 692.495 -162.8125 692.75 C-159.73105265 694.11953215 -157.5939755 695.85997022 -155 698 C-154.071875 698.53625 -153.14375 699.0725 -152.1875 699.625 C-151.465625 700.07875 -150.74375 700.5325 -150 701 C-150 701.66 -150 702.32 -150 703 C-149.01 703 -148.02 703 -147 703 C-147 703.99 -147 704.98 -147 706 C-146.41605469 706.11730469 -145.83210937 706.23460937 -145.23046875 706.35546875 C-142.85627212 707.04153258 -141.34455283 707.91520606 -139.3125 709.3125 C-138.15041016 710.10914063 -138.15041016 710.10914063 -136.96484375 710.921875 C-131.66461685 714.63692205 -126.36748557 718.35607783 -121.0859375 722.09765625 C-120.40241211 722.58121582 -119.71888672 723.06477539 -119.01464844 723.56298828 C-117.67830426 724.51617804 -116.34810492 725.47804565 -115.02441406 726.44873047 C-112.36266841 728.39438969 -110.14954039 729.9501532 -107 731 C-107 731.66 -107 732.32 -107 733 C-106.17822266 733.14888672 -106.17822266 733.14888672 -105.33984375 733.30078125 C-102.40552802 734.17764689 -100.15505776 735.55861142 -97.5625 737.1875 C-96.63566406 737.75855469 -95.70882812 738.32960938 -94.75390625 738.91796875 C-88.53856936 743.61693976 -88.53856936 743.61693976 -87 747 C-86.49758131 751.41654965 -86.71164957 755.75548882 -86.9375 760.1875 C-87.04828515 762.5343624 -87.14158321 764.88213543 -87.21484375 767.23046875 C-87.26761475 768.26582764 -87.32038574 769.30118652 -87.37475586 770.36791992 C-87.27317123 773.14930572 -87.27317123 773.14930572 -84.98657227 774.7355957 C-84.33100342 775.15284912 -83.67543457 775.57010254 -83 776 C-83 776.66 -83 777.32 -83 778 C-82.46375 778.2475 -81.9275 778.495 -81.375 778.75 C-78.43575748 780.29696975 -75.74245592 782.13014369 -73 784 C-73.01160156 783.39671875 -73.02320313 782.7934375 -73.03515625 782.171875 C-73.04869141 780.97304687 -73.04869141 780.97304687 -73.0625 779.75 C-73.07410156 778.96109375 -73.08570313 778.1721875 -73.09765625 777.359375 C-73 775 -73 775 -72.52294922 773.0965271 C-71.64445758 769.57461432 -71.41485852 765.95709879 -71.0625 762.3515625 C-70.93500366 761.07809464 -70.93500366 761.07809464 -70.80493164 759.77890015 C-70.62536505 757.97855549 -70.44726004 756.17806455 -70.27050781 754.37744141 C-70.00434538 751.6692146 -69.73303686 748.96154225 -69.4609375 746.25390625 C-68.58849752 737.49922254 -67.79610618 728.75225912 -67.20605469 719.97363281 C-66.91884274 715.82879693 -66.53286576 711.69693409 -66.125 707.5625 C-66.0002832 706.27472656 -66.0002832 706.27472656 -65.87304688 704.9609375 C-65.68726994 703.04436109 -65.50070897 701.12786055 -65.31347656 699.21142578 C-64.96484334 695.63983595 -64.61894457 692.06798734 -64.2734375 688.49609375 C-64.14678711 687.18688965 -64.02013672 685.87768555 -63.88964844 684.52880859 C-63.75976187 683.18587276 -63.62987907 681.84293656 -63.5 680.5 C-63.24222495 677.83463179 -62.98440548 675.16926789 -62.7265625 672.50390625 C-62.5414209 670.58989014 -62.5414209 670.58989014 -62.35253906 668.63720703 C-62.03598588 665.37127261 -61.71748994 662.10553473 -61.3984375 658.83984375 C-60.56081284 650.22026903 -59.79640803 641.60948743 -59.2109375 632.96875 C-58.85501057 627.95940803 -58.32848048 622.97213736 -57.77685547 617.98095703 C-56.68124522 608.06471948 -55.74286375 598.18847082 -55.24609375 588.22265625 C-55.04699862 585.61545809 -54.6395067 583.50349522 -54 581 C-53.79999921 578.79443577 -53.63722843 576.58535795 -53.5 574.375 C-53.2214277 570.11240165 -52.90560481 565.87090842 -52.4375 561.625 C-52.11435836 558.60238283 -51.9608888 555.66449861 -52 552.625 C-52 549.6209997 -51.71984303 547.81387169 -51 545 C-50.8039236 543.38611424 -50.63968126 541.76817894 -50.5 540.1484375 C-50.4175 539.21386719 -50.335 538.27929688 -50.25 537.31640625 C-50.12625 535.86041016 -50.12625 535.86041016 -50 534.375 C-49.83378343 532.46610659 -49.6671192 530.5572521 -49.5 528.6484375 C-49.41814453 527.70685791 -49.33628906 526.76527832 -49.25195312 525.79516602 C-49.00967221 523.10730342 -48.74376326 520.42297084 -48.46875 517.73828125 C-48.06528212 513.76664435 -47.7567487 509.79668971 -47.5 505.8125 C-47.17963458 501.16219565 -46.68319174 496.61154426 -46 492 C-45.24628603 484.70486734 -45.24628603 484.70486734 -45.03515625 477.3828125 C-45 475 -45 475 -44.51757812 473.16259766 C-43.93914348 470.74572308 -43.78954623 468.49794013 -43.68359375 466.015625 C-43.62075195 464.61376953 -43.62075195 464.61376953 -43.55664062 463.18359375 C-43.49766602 461.73146484 -43.49766602 461.73146484 -43.4375 460.25 C-43.37272461 458.77466797 -43.37272461 458.77466797 -43.30664062 457.26953125 C-43.20077948 454.84648725 -43.09869829 452.4233446 -43 450 C-42.34 450 -41.68 450 -41 450 C-41.01740234 448.96166016 -41.01740234 448.96166016 -41.03515625 447.90234375 C-41.12731554 437.90964334 -40.99878838 427.81494595 -39 418 C-38.65994983 415.27102593 -38.34620827 412.54730906 -38.0625 409.8125 C-37.97822754 409.00603027 -37.89395508 408.19956055 -37.80712891 407.36865234 C-37.05667791 399.96263036 -36.45098207 392.54640716 -35.875 385.125 C-35.78742432 384.00198486 -35.69984863 382.87896973 -35.60961914 381.72192383 C-35.26358367 377.13425322 -34.95099859 372.60300515 -35 368 C-34.34 368 -33.68 368 -33 368 C-33.185625 367.236875 -33.37125 366.47375 -33.5625 365.6875 C-34.27325394 359.69685962 -33.50317227 353.79540148 -32.4375 347.875 C-32.05218678 345.34294167 -31.97000527 343.11205233 -32 340.5625 C-32.04613739 336.60786625 -31.61795284 332.91370135 -31 329 C-30.84336573 327.5530801 -30.69729396 326.10499903 -30.55859375 324.65625 C-30.1549224 320.52736547 -29.72541593 316.40207363 -29.28125 312.27734375 C-27.99039832 300.18849327 -26.72430739 288.14194152 -26.2109375 275.9921875 C-26 273 -26 273 -25 270 C-24.95632422 268.54232084 -24.96019686 267.08279005 -25 265.625 C-25.04367208 262.2458726 -24.71532168 259.30836275 -24 256 C-23.96227087 254.0003559 -23.95350094 251.99945939 -24 250 C-23.34 250 -22.68 250 -22 250 C-22.185625 248.88625 -22.37125 247.7725 -22.5625 246.625 C-22.95729445 243.45209935 -22.96290812 240.58990217 -22.609375 237.4140625 C-22.51342041 236.53476074 -22.41746582 235.65545898 -22.31860352 234.74951172 C-21.89796811 231.11947655 -21.47551787 227.48968078 -21.04882812 223.86035156 C-19.20832668 208.01711619 -17.8442597 192.14090718 -16.48779297 176.25024414 C-15.48868289 164.55652318 -14.45255889 152.86837153 -13.3125 141.1875 C-13.13364258 139.35010254 -13.13364258 139.35010254 -12.95117188 137.47558594 C-12.49546765 132.84610512 -12.03119688 128.22072786 -11.48046875 123.6015625 C-10.60157229 115.83723655 -10.24133893 108.01686999 -9.75 100.22070312 C-9.6675 98.96580078 -9.585 97.71089844 -9.5 96.41796875 C-9.4278125 95.28125732 -9.355625 94.1445459 -9.28125 92.97338867 C-9.04759137 90.50313831 -8.60592274 88.3877338 -8 86 C-7.81085178 84.0681476 -7.66002495 82.13238208 -7.53515625 80.1953125 C-7.45837646 79.06125977 -7.38159668 77.92720703 -7.30249023 76.75878906 C-7.22329346 75.55963867 -7.14409668 74.36048828 -7.0625 73.125 C-6.47827154 64.70546499 -5.76254991 56.42415023 -4.43359375 48.08984375 C-3.77983698 43.43109052 -3.55535296 38.76041952 -3.28125 34.06640625 C-2.8370308 27.07168914 -1.98520533 20.11011577 -1.22753906 13.14404297 C-0.76310923 8.76783826 -0.3744239 4.38470089 0 0 Z " fill="#000000" transform="translate(1023,120)"/>
<path d="" fill="#000000" transform="translate(0,0)"/>
<path d="" fill="#000000" transform="translate(0,0)"/>
<path d="" fill="#000000" transform="translate(0,0)"/>
<path d="" fill="#000000" transform="translate(0,0)"/>
<path d="" fill="#000000" transform="translate(0,0)"/>
<path d="" fill="#000000" transform="translate(0,0)"/>
<path d="" fill="#000000" transform="translate(0,0)"/>
<path d="" fill="#000000" transform="translate(0,0)"/>
</svg>
